HIERARCHY
ROOT Hips
{
 OFFSET 0.000000 0.000000 0.000000
 CHANNELS 6 Xposition Yposition Zposition Yrotation Xrotation Zrotation
 JOINT Chest
 {
  OFFSET 0.000000 9.585900 0.002600
  CHANNELS 3 Yrotation Xrotation Zrotation
  JOINT Chest2
  {
   OFFSET 0.000000 9.601200 -0.005300
   CHANNELS 3 Yrotation Xrotation Zrotation
   JOINT Chest3
   {
    OFFSET 0.000000 9.561800 0.000000
    CHANNELS 3 Yrotation Xrotation Zrotation
    JOINT Chest4
    {
     OFFSET 0.000000 9.552100 0.000000
     CHANNELS 3 Yrotation Xrotation Zrotation
     JOINT Neck
     {
      OFFSET 0.000000 14.453000 0.000000
      CHANNELS 3 Yrotation Xrotation Zrotation
      JOINT Head
      {
       OFFSET 0.000000 8.936500 -0.011300
       CHANNELS 3 Yrotation Xrotation Zrotation
       End Site
       {
        OFFSET 0.000000 17.073600 -0.006000
       }
      }
     }
     JOINT RightCollar
     {
      OFFSET -2.921100 9.558500 0.000000
      CHANNELS 3 Yrotation Xrotation Zrotation
      JOINT RightShoulder
      {
       OFFSET -13.519700 0.000000 0.000000
       CHANNELS 3 Yrotation Xrotation Zrotation
       JOINT RightElbow
       {
        OFFSET 0.000000 -29.696600 0.000000
        CHANNELS 3 Yrotation Xrotation Zrotation
        JOINT RightWrist
        {
         OFFSET 0.000000 -24.004700 0.000000
         CHANNELS 3 Yrotation Xrotation Zrotation
         End Site
         {
          OFFSET 0.000000 -17.728500 0.000000
         }
        }
       }
      }
     }
     JOINT LeftCollar
     {
      OFFSET 2.921100 9.558500 0.000000
      CHANNELS 3 Yrotation Xrotation Zrotation
      JOINT LeftShoulder
      {
       OFFSET 13.519700 0.000000 0.000000
       CHANNELS 3 Yrotation Xrotation Zrotation
       JOINT LeftElbow
       {
        OFFSET 0.000000 -29.696600 0.000000
        CHANNELS 3 Yrotation Xrotation Zrotation
        JOINT LeftWrist
        {
         OFFSET 0.000000 -24.004700 0.000000
         CHANNELS 3 Yrotation Xrotation Zrotation
         End Site
         {
          OFFSET 0.000000 -17.728500 0.000000
         }
        }
       }
      }
     }
    }
   }
  }
 }
 JOINT RightHip
 {
  OFFSET -7.771700 -0.012900 -0.001300
  CHANNELS 3 Yrotation Xrotation Zrotation
  JOINT RightKnee
  {
   OFFSET 0.000000 -40.869800 0.001200
   CHANNELS 3 Yrotation Xrotation Zrotation
   JOINT RightAnkle
   {
    OFFSET 0.000000 -39.717900 0.002100
    CHANNELS 3 Yrotation Xrotation Zrotation
    JOINT RightToe
    {
     OFFSET 0.000000 -4.965400 11.033500
     CHANNELS 3 Yrotation Xrotation Zrotation
     End Site
     {
      OFFSET 0.000000 -1.423100 5.872300
     }
    }
   }
  }
 }
 JOINT LeftHip
 {
  OFFSET 7.771700 -0.012900 -0.001300
  CHANNELS 3 Yrotation Xrotation Zrotation
  JOINT LeftKnee
  {
   OFFSET 0.000000 -40.869800 0.001200
   CHANNELS 3 Yrotation Xrotation Zrotation
   JOINT LeftAnkle
   {
    OFFSET 0.000000 -39.717900 0.002100
    CHANNELS 3 Yrotation Xrotation Zrotation
    JOINT LeftToe
    {
     OFFSET 0.000000 -4.965400 11.033500
     CHANNELS 3 Yrotation Xrotation Zrotation
     End Site
     {
      OFFSET 0.000000 -1.423100 5.872300
     }
    }
   }
  }
 }
}
MOTION
Frames: 7
Frame Time: 0.008333
0.000000 85.388000 0.000000 0.000000 -5.767877 0.000000 0.000000 11.653817 0.000000 0.000000 -5.885947 0.000000 0.000000 -0.000000 0.000000 0.000000 -0.000000 0.000000 0.000000 12.528835 0.000000 0.000000 0.711642 0.000000 0.000000 -0.000000 0.000000 0.000000 0.000000 -90.000000 0.000000 -2.309062 0.000000 0.000000 2.309062 0.000000 0.000000 -0.000000 0.000000 0.000000 -0.000000 90.000000 0.000000 -2.309062 0.000000 0.000000 2.309062 0.000000 0.000000 8.520406 0.000000 0.000000 1.905762 0.000000 -0.000000 -4.658285 0.000000 0.000000 -0.000000 0.000000 0.000000 8.520406 0.000000 0.000000 1.905762 0.000000 -0.000000 -4.658285 0.000000 0.000000 -0.000000 0.000000
6.117334 52.123263 38.605541 171.138977 -37.473469 -3.098508 4.145674 23.828027 2.103027 0.548711 3.638455 0.360277 0.895528 5.830305 0.601525 3.414991 19.827929 2.510385 1.661519 14.405613 -1.074011 3.530214 -8.989628 -2.651091 -5.217051 -2.150807 -3.319785 -4.051172 0.022083 3.347339 160.989911 -73.724036 -148.626784 4.139258 -13.135992 -15.789603 -7.512755 -2.404451 -0.195956 1.799076 -24.401429 0.872024 -167.228559 -63.479269 156.973463 -9.949644 -16.225725 27.589536 -6.343797 -43.531363 5.009104 139.772913 86.433824 143.111390 -4.590560 -11.135535 -3.461776 0.210026 -0.222175 0.079299 0.352100 -40.370165 7.287641 73.134023 83.473212 63.031333 -5.797766 -12.702073 10.049103 0.451860 1.649026 0.162280
6.122538 52.122007 38.600709 171.110073 -37.460031 -3.101647 4.175470 23.866844 2.110952 0.552337 3.633704 0.363552 0.900331 5.838210 0.602311 3.429511 19.837800 2.513236 1.717146 14.484247 -1.051512 3.623204 -8.842478 -2.626909 -5.222887 -2.146816 -3.335583 -4.065358 -0.008521 3.376167 161.083515 -73.678710 -148.731078 4.133407 -13.155735 -15.831399 -7.545144 -2.483195 -0.215758 1.707170 -24.791739 0.783550 -167.405354 -63.061567 157.164096 -9.951943 -16.397228 27.797615 -6.348566 -43.542478 5.038959 139.789112 86.430653 143.134254 -4.585944 -11.142213 -3.467305 0.214587 -0.221172 0.076898 0.330828 -40.385440 7.311424 73.288474 83.469348 63.194950 -5.787128 -12.722958 10.030207 0.435599 1.658204 0.162375
6.126094 52.120043 38.595473 171.080717 -37.440021 -3.090599 4.199534 23.892722 2.108672 0.555194 3.640013 0.363412 0.904813 5.847688 0.602167 3.441989 19.850421 2.512263 1.768389 14.553421 -1.028741 3.708269 -8.712959 -2.600823 -5.227119 -2.142339 -3.350304 -4.080671 -0.038591 3.401278 161.299809 -73.635467 -148.969292 4.147422 -13.151535 -15.827425 -7.572060 -2.558392 -0.225599 1.626137 -25.166350 0.695834 -167.583816 -62.635717 157.342873 -9.956945 -16.580932 27.982131 -6.346694 -43.563498 5.052079 139.833736 86.425081 143.182748 -4.582809 -11.153720 -3.472511 0.210670 -0.219645 0.076118 0.292790 -40.405823 7.320867 73.512531 83.448175 63.409815 -5.751724 -12.741789 10.014951 0.408636 1.661389 0.150136
6.136277 52.120530 38.588103 171.037498 -37.441930 -3.104263 4.252941 23.939714 2.145831 0.558314 3.647868 0.362975 0.909754 5.859518 0.601541 3.455075 19.866493 2.509378 1.812613 14.613299 -1.005121 3.780082 -8.601016 -2.570781 -5.229349 -2.139398 -3.365502 -4.091494 -0.004507 3.401216 161.707447 -73.549217 -149.404361 4.172020 -13.155605 -15.830463 -7.614433 -2.603578 -0.267795 1.543177 -25.556768 0.662113 -167.750943 -62.209695 157.504345 -9.968428 -16.772455 28.150027 -6.368680 -43.553922 5.104776 139.830890 86.424166 143.193131 -4.567203 -11.157770 -3.491852 0.211561 -0.222054 0.069902 0.274540 -40.406707 7.363465 73.731407 83.442887 63.662060 -5.764447 -12.773638 9.970971 0.435443 1.676902 0.171413
6.141138 52.117958 38.583396 171.020723 -37.414707 -3.101260 4.271771 23.964300 2.145560 0.562055 3.657391 0.362489 0.915612 5.873877 0.600807 3.470607 19.885914 2.506091 1.848048 14.664150 -0.979840 3.835030 -8.506276 -2.534695 -5.240355 -2.189588 -3.360070 -4.086635 0.050011 3.392552 162.018116 -73.488978 -149.742792 4.138898 -13.166079 -15.891268 -7.641995 -2.676847 -0.265559 1.447911 -25.904605 0.606431 -167.893105 -61.787965 157.645542 -9.990566 -16.961690 28.309519 -6.399923 -43.578322 5.126037 139.795345 86.413874 143.157151 -4.564122 -11.171837 -3.506760 0.213912 -0.218986 0.066593 0.274227 -40.435033 7.369918 73.812782 83.442165 63.756794 -5.776446 -12.787370 9.963524 0.448615 1.685337 0.171178
6.142510 52.112797 38.581430 170.990393 -37.364328 -3.069054 4.288634 23.941056 2.123474 0.568685 3.697771 0.357835 0.922414 5.891007 0.600091 3.488457 19.909042 2.502614 1.875475 14.705862 -0.952553 3.874588 -8.428921 -2.492242 -5.253363 -2.249959 -3.352752 -4.078745 0.091701 3.393667 162.258268 -73.443696 -150.014637 4.124666 -13.166515 -15.927663 -7.668534 -2.775308 -0.241419 1.341391 -26.214303 0.554702 -168.004061 -61.368387 157.760799 -10.024174 -17.138373 28.472521 -6.392994 -43.637824 5.122859 139.858092 86.402000 143.217328 -4.569507 -11.184333 -3.511989 0.220063 -0.214242 0.066511 0.284885 -40.482763 7.350569 73.879426 83.428906 63.816793 -5.756957 -12.806760 9.960035 0.428180 1.697779 0.162178
